<?xml version="1.0" encoding="UTF-8" standalone="no"?>
<!-- Created with Inkscape (http://www.inkscape.org/) -->

<svg
   width="210mm"
   height="297mm"
   viewBox="0 0 210 297"
   version="1.1"
   id="svg1"
   inkscape:version="1.4 (e7c3feb100, 2024-10-09)"
   sodipodi:docname="freehand_tool.svg"
   xmlns:inkscape="http://www.inkscape.org/namespaces/inkscape"
   xmlns:sodipodi="http://sodipodi.sourceforge.net/DTD/sodipodi-0.dtd"
   xmlns="http://www.w3.org/2000/svg"
   xmlns:svg="http://www.w3.org/2000/svg">
  <sodipodi:namedview
     id="namedview1"
     pagecolor="#ffffff"
     bordercolor="#000000"
     borderopacity="0.25"
     inkscape:showpageshadow="2"
     inkscape:pageopacity="0.0"
     inkscape:pagecheckerboard="0"
     inkscape:deskcolor="#d1d1d1"
     inkscape:document-units="mm"
     inkscape:zoom="0.71179153"
     inkscape:cx="396.18342"
     inkscape:cy="561.25984"
     inkscape:window-width="1920"
     inkscape:window-height="1008"
     inkscape:window-x="0"
     inkscape:window-y="0"
     inkscape:window-maximized="1"
     inkscape:current-layer="layer1" />
  <defs
     id="defs1" />
  <g
     inkscape:label="Layer 1"
     inkscape:groupmode="layer"
     id="layer1">
    <path
       style="fill:none;stroke:#00cfff;stroke-width:7.99999"
       d="m 60.589487,75.829786 c 3.737351,1.9861 7.234396,4.285668 10.40801,7.062578 0.932479,0.81592 2.097577,1.354149 2.973716,2.230287 0.908669,0.908669 2.107165,3.169878 2.602002,4.088863 2.720163,5.051732 2.973718,10.350442 2.973718,15.983726 0,1.73467 0.31968,3.49905 0,5.20401 -0.596484,3.18124 -2.487033,7.09897 -4.460576,9.66458 -0.64103,0.83334 -1.541716,1.43578 -2.230289,2.23029 -1.917941,2.21301 -2.392275,3.73999 -4.832289,5.204 -1.046417,0.62785 -2.230287,0.99124 -3.345431,1.48686 -2.096027,0.93157 -5.258414,2.42975 -7.434295,2.97372 -2.081069,0.52026 -6.253196,0.89645 -8.549436,1.11514 -3.883324,0.36984 -7.706796,0.8209 -11.523154,-0.37171 -0.689594,-0.2155 -1.24904,-0.72726 -1.858571,-1.11515 -1.151165,-0.73256 -2.902524,-1.75178 -3.717147,-2.97371 -1.867779,-2.80167 -2.264947,-7.15702 -1.858574,-10.40802 0.73432,-5.87455 5.976835,-10.30448 10.036294,-14.12515 2.092674,-1.96958 4.668875,-2.98753 7.062579,-4.460576 0.907759,-0.55862 1.63613,-1.407832 2.602002,-1.858574 3.478543,-1.623319 8.489249,-1.486858 12.266583,-1.486858 8.689139,0 12.685684,0.284692 21.187735,3.345432 2.211959,0.796306 4.530019,1.304206 6.690863,2.230286 3.617286,1.55027 6.862617,4.42395 10.036297,6.69087 0.727066,0.51933 1.629256,0.82572 2.230286,1.48685 1.45799,1.60379 2.08563,3.812 3.34543,5.57572 0.56248,0.78748 1.44934,1.35335 1.85858,2.23029 0.48308,1.03518 0.47884,2.23415 0.74342,3.34543 0.35499,1.49094 0.93947,2.93806 1.11515,4.46058 0.19883,1.72323 0,3.46933 0,5.204 0,1.36296 0.2673,2.75238 0,4.08886 -0.23932,1.19663 -0.98189,2.2345 -1.48686,3.34543 -2.66038,5.85285 -3.99686,7.34792 -8.177722,12.26659 -4.277341,5.03217 -8.713978,9.66202 -14.49687,13.01001 -1.056098,0.61143 -2.253943,0.94111 -3.345431,1.48686 -1.141003,0.5705 -2.140559,1.43949 -3.345432,1.85857 -1.675585,0.58281 -3.470449,0.73829 -5.204007,1.11515 -2.729481,0.59336 -9.989995,1.57549 -12.638296,0.37171 -0.638088,-0.29004 -0.991241,-0.99124 -1.486858,-1.48686 -0.619525,-0.61952 -1.343253,-1.15001 -1.858574,-1.85857 -2.109041,-2.89993 -2.528152,-8.88239 -1.486858,-12.26658 0.227053,-0.73793 2.814421,-4.27232 2.973716,-4.46058 0.570518,-0.67425 3.580183,-3.61932 4.460576,-4.08886 1.037175,-0.55316 2.249892,-0.6891 3.345431,-1.11514 10.112468,-3.93263 -3.854201,1.04825 7.062579,-2.97372 4.122724,-1.5189 8.293904,-2.37449 12.638299,-2.97372 7.729717,-1.06617 4.99093,-0.74343 13.753441,-0.74343 1.547076,0 9.426246,-0.34207 12.638296,0.37172 4.88304,1.08512 6.53331,3.20538 10.0363,6.31915 1.18595,1.05418 2.59514,1.85171 3.71714,2.97371 0.99896,0.99896 1.74384,2.22322 2.60201,3.34544 4.47641,5.85376 7.43429,12.19899 7.43429,19.70087 0,2.47201 0.3895,4.79672 -0.74343,7.06258 -0.62711,1.25421 -1.98367,3.77969 -3.34543,4.46057 -2.36262,1.18131 -8.31979,0.94843 -10.77973,0.74343 -0.22345,-0.0186 -5.84125,-0.26552 -7.06258,-1.48685"
       id="path1"
       inkscape:export-filename="freehand_tool.png"
       inkscape:export-xdpi="7.0927167"
       inkscape:export-ydpi="7.0927167" />
  </g>
</svg>
