<?xml version="1.0" encoding="UTF-8" standalone="no"?>
<!-- Created with Inkscape (http://www.inkscape.org/) -->

<svg
   width="210mm"
   height="297mm"
   viewBox="0 0 210 297"
   version="1.1"
   id="svg1"
   inkscape:version="1.4 (e7c3feb100, 2024-10-09)"
   sodipodi:docname="logo.svg"
   xmlns:inkscape="http://www.inkscape.org/namespaces/inkscape"
   xmlns:sodipodi="http://sodipodi.sourceforge.net/DTD/sodipodi-0.dtd"
   xmlns="http://www.w3.org/2000/svg"
   xmlns:svg="http://www.w3.org/2000/svg">
  <sodipodi:namedview
     id="namedview1"
     pagecolor="#ffffff"
     bordercolor="#000000"
     borderopacity="0.25"
     inkscape:showpageshadow="2"
     inkscape:pageopacity="0.0"
     inkscape:pagecheckerboard="0"
     inkscape:deskcolor="#d1d1d1"
     inkscape:document-units="mm"
     showguides="true"
     inkscape:zoom="1.0066252"
     inkscape:cx="408.29495"
     inkscape:cy="433.62712"
     inkscape:window-width="1920"
     inkscape:window-height="1008"
     inkscape:window-x="0"
     inkscape:window-y="0"
     inkscape:window-maximized="1"
     inkscape:current-layer="layer1" />
  <defs
     id="defs1" />
  <g
     inkscape:label="Layer 1"
     inkscape:groupmode="layer"
     id="layer1">
    <circle
       style="fill:#000000;fill-opacity:1;stroke:none;stroke-width:1.28887;stroke-dasharray:none"
       id="path1"
       cx="92.419556"
       cy="123.20208"
       r="67.432243" />
    <path
       d="m 119.0585,111.87044 c -3.49677,1.10831 -7.25324,1.69016 -11.05307,1.71204 -0.23278,-0.0131 -0.46534,-0.0282 -0.69763,-0.0455 -0.98593,2.08832 -2.42176,3.76292 -4.31757,5.01416 -3.950072,2.60704 -9.954202,3.91036 -18.012342,3.91036 h -8.53229 V 89.043896 h 3.11299 c 0.656509,-3.281264 2.324693,-6.40449 4.8736,-9.124507 H 65.780618 V 182.66582 c 0,0 6.390548,-23.18326 7.374166,-25.70364 1.771087,-4.53817 3.290814,-8.90431 3.290814,-8.90431 v -16.47135 h 9.71723 c 8.45315,0 15.128602,-1.26448 20.026692,-3.79253 4.97708,-2.52804 8.49313,-5.80651 10.54716,-9.83558 1.02056,-1.96553 1.78955,-3.99588 2.32182,-6.088 z"
       style="font-size:118.502px;fill:#00d0ff;stroke:#00d0ff;stroke-width:1;stroke-dasharray:none;stroke-opacity:1"
       id="path22"
       sodipodi:nodetypes="sccssccccccsccscccs" />
    <g
       id="g40"
       inkscape:transform-center-x="-29.812963"
       inkscape:transform-center-y="-59.773947"
       transform="matrix(1.0194778,-0.12581354,0.0105272,1.1079318,-2.5330001,-11.801458)">
      <path
         style="fill:#ffffff;fill-opacity:1;stroke:#ffffff;stroke-width:0.5;stroke-linecap:round;stroke-dasharray:none;stroke-opacity:1"
         d="m 72.036392,163.29132 c -0.354425,-0.39164 -1.201169,-0.86066 -1.874213,-1.03814 -0.345985,-0.0912 -0.545259,-0.21151 -0.507704,-0.30644 0.130231,-0.32917 42.957315,-79.540394 43.063255,-79.648034 0.11546,-0.117314 2.76086,1.218401 2.76211,1.394645 8e-4,0.117716 -42.94727,79.629379 -43.090809,79.775859 -0.0548,0.0559 -0.213484,-0.0241 -0.352639,-0.17789 z"
         id="path36" />
      <g
         id="g19"
         style="fill:none;stroke:#ff0000"
         transform="rotate(-151.61807,120.40826,181.99427)">
        <path
           style="fill:none;fill-opacity:1;stroke:#ff0000;stroke-width:1;stroke-dasharray:none"
           d="m 162.17348,173.73852 v 93.04606"
           id="path6" />
        <path
           style="fill:none;fill-opacity:1;stroke:#ff0000;stroke-width:1;stroke-dasharray:none"
           d="m 166.51037,173.73852 v 93.04606"
           id="path7" />
        <path
           style="fill:none;fill-opacity:1;stroke:#ff0000;stroke-width:1;stroke-dasharray:none"
           d="m 166.51037,173.73852 v 93.04606"
           id="path8" />
        <path
           id="path12"
           style="fill:none;stroke:#ff0000"
           d="m 166.51036,173.73853 c -1e-5,0.7162 -0.97085,1.2968 -2.16844,1.2968 -1.1976,0 -2.16844,-0.58059 -2.16845,-1.2968"
           sodipodi:nodetypes="csc" />
        <path
           id="path13"
           style="fill:none;stroke:#ff0000"
           d="m 170.84725,173.73853 c -1e-5,0.7162 -0.97085,1.2968 -2.16844,1.2968 -1.1976,0 -2.16844,-0.58059 -2.16845,-1.2968"
           sodipodi:nodetypes="csc" />
        <path
           style="fill:none;fill-opacity:1;stroke:#ff0000;stroke-width:1;stroke-dasharray:none"
           d="m 170.84725,173.73852 v 93.04606"
           id="path14" />
        <path
           id="path15"
           style="fill:none;stroke:#ff0000"
           d="m 175.18414,173.73853 c -1e-5,0.7162 -0.97085,1.2968 -2.16844,1.2968 -1.1976,0 -2.16844,-0.58059 -2.16845,-1.2968"
           sodipodi:nodetypes="csc" />
        <path
           style="fill:none;fill-opacity:1;stroke:#ff0000;stroke-width:1;stroke-dasharray:none"
           d="m 175.18414,173.73852 v 93.04606"
           id="path16" />
        <path
           style="fill:none;fill-opacity:1;stroke:#ff0000;stroke-width:1;stroke-linecap:square;stroke-dasharray:none"
           d="m 162.17348,266.78458 h 13.01066"
           id="path17" />
        <path
           style="fill:none;fill-opacity:1;stroke:#ff0000;stroke-width:1;stroke-linecap:round;stroke-dasharray:none"
           d="m 162.17348,173.73852 6.44558,-17.66484 6.56508,17.66485"
           id="path18" />
        <path
           id="path19"
           style="fill:none;stroke:#ff0000"
           d="m 170.7875,162.12245 c -1e-5,0.7162 -0.97085,1.2968 -2.16844,1.2968 -1.1976,0 -2.16844,-0.58059 -2.16845,-1.2968"
           sodipodi:nodetypes="csc" />
      </g>
      <path
         style="fill:#ffffff;fill-opacity:1;stroke:#ffffff;stroke-width:0.499999;stroke-linecap:round;stroke-dasharray:none;stroke-opacity:1"
         d="m 79.558441,167.35995 c -0.450226,-0.46449 -1.25299,-0.88982 -1.909197,-1.01154 l -0.483102,-0.0896 21.513815,-39.82055 c 11.832603,-21.90131 21.563193,-39.900623 21.623553,-39.998479 0.0858,-0.139081 0.41251,-0.01191 1.49659,0.582459 l 1.38685,0.760386 -0.61112,1.126011 c -0.33611,0.619307 -10.03297,18.572143 -21.54857,39.895203 -11.515594,21.32305 -20.973141,38.80776 -21.016771,38.85492 -0.04363,0.0472 -0.247047,-0.0873 -0.452048,-0.2988 z"
         id="path34" />
      <path
         style="fill:#ffffff;fill-opacity:1;stroke:#ffffff;stroke-width:0.5;stroke-linecap:round;stroke-dasharray:none;stroke-opacity:1"
         d="m 75.566643,165.15032 c -0.335698,-0.30032 -0.85258,-0.58752 -1.314212,-0.73022 -0.418489,-0.12937 -0.781738,-0.25269 -0.807217,-0.27405 -0.02548,-0.0214 9.667292,-18.0178 21.539496,-39.99209 l 21.58582,-39.953252 1.32596,0.710266 c 0.72927,0.390647 1.34279,0.760775 1.36336,0.822507 0.0336,0.100677 -42.854465,79.613079 -43.056271,79.824329 -0.04599,0.0481 -0.332613,-0.13523 -0.636936,-0.40749 z"
         id="path35" />
      <path
         style="fill:#ff0000;fill-opacity:1;stroke:#ff0000;stroke-width:0.5;stroke-linecap:round;stroke-dasharray:none;stroke-opacity:1"
         d="m 66.463902,180.31377 c 0.01672,-0.61395 0.666536,-4.46091 0.771213,-4.56559 0.209962,-0.20996 1.004898,-0.12893 1.571633,0.16019 0.559493,0.28543 1.237699,1.00618 1.175543,1.24928 -0.02151,0.0842 -0.630512,0.67828 -1.353327,1.32028 -0.722816,0.64201 -1.506414,1.34569 -1.741327,1.56374 -0.234915,0.21805 -0.425595,0.34049 -0.423735,0.2721 z"
         id="path38" />
      <path
         style="fill:#ffffff;fill-opacity:1;stroke:#ffffff;stroke-width:0.248355;stroke-linecap:round;stroke-dasharray:none;stroke-opacity:1"
         d="m 70.674084,175.99705 c -0.500615,-0.81001 -1.868313,-1.52444 -2.918383,-1.52444 -0.462973,0 -0.505251,-0.0281 -0.444262,-0.29569 0.03707,-0.16264 0.391769,-2.62052 0.788212,-5.46197 0.396444,-2.84144 0.755137,-5.2218 0.797095,-5.28969 0.116308,-0.18819 0.800362,-0.14736 1.346345,0.0804 0.631902,0.26356 1.342845,0.95446 1.342845,1.305 0,0.42561 0.607351,0.71394 1.331481,0.63208 0.334767,-0.0378 0.82367,0.002 1.086454,0.0889 0.643305,0.21231 1.393274,0.93503 1.393274,1.34265 0,0.44704 0.770861,0.82679 1.242298,0.61198 0.716781,-0.32658 2.585287,0.70514 2.559958,1.41352 -0.0056,0.15771 -1.534507,1.59773 -4.132239,3.89209 l -4.123287,3.64176 z"
         id="path37" />
    </g>
    <path
       d="m 119.0817,111.87989 c 0.58021,-2.28054 0.87747,-4.63476 0.87747,-7.06572 0,-7.900128 -2.52795,-14.022804 -7.58404,-18.367874 -5.05609,-4.34507 -13.114037,-6.517434 -24.174206,-6.517434 h -3.74551 c -2.548909,2.720019 -4.217092,5.843248 -4.8736,9.124514 h 7.67085 c 7.50513,0 12.995776,1.34316 16.471836,4.029211 3.47606,2.686055 5.21415,6.754885 5.21415,12.205973 0,3.24573 -0.53932,5.99503 -1.60765,8.2579 0.23229,0.0173 0.46485,0.0324 0.69763,0.0455 3.79983,-0.0219 7.5563,-0.60373 11.05307,-1.71204 z"
       style="fill:#00d0ff;fill-opacity:1;stroke:#00d0ff;stroke-width:1;stroke-linecap:round;stroke-dasharray:none;stroke-opacity:1"
       id="path23"
       sodipodi:nodetypes="ssssccsssccss"
       inkscape:export-filename="logo.png"
       inkscape:export-xdpi="24.107161"
       inkscape:export-ydpi="24.107161" />
  </g>
</svg>
